// Portal short
const uint8_t Tune[] PROGMEM = {
  0x4d, 0x54, 0x68, 0x64, 0x00, 0x00, 0x00, 0x06, 0x00, 0x01, 0x00, 0x01,
  0x03, 0xc0, 0x4d, 0x54, 0x72, 0x6b, 0x00, 0x00, 0x10, 0xe5, 0x00, 0xff,
  0x03, 0x13, 0x4d, 0x75, 0x73, 0x69, 0x63, 0x42, 0x6f, 0x78, 0x4d, 0x61,
  0x6e, 0x69, 0x61, 0x63, 0x73, 0x2e, 0x63, 0x6f, 0x6d, 0x00, 0xc0, 0x0a,
  0x00, 0x90, 0x5b, 0x7f, 0x00, 0xff, 0x51, 0x03, 0x0f, 0x42, 0x40, 0x81,
  0x70, 0x80, 0x5b, 0x7f, 0x00, 0x90, 0x5a, 0x7f, 0x81, 0x70, 0x80, 0x5a,
  0x7f, 0x00, 0x90, 0x58, 0x7f, 0x81, 0x70, 0x80, 0x58, 0x7f, 0x00, 0x90,
  0x58, 0x7f, 0x81, 0x70, 0x80, 0x58, 0x7f, 0x00, 0x90, 0x45, 0x7f, 0x00,
  0x90, 0x5a, 0x7f, 0x81, 0x70, 0x80, 0x45, 0x7f, 0x00, 0x80, 0x5a, 0x7f,
//   0x00, 0x90, 0x4a, 0x7f, 0x81, 0x70, 0x80, 0x4a, 0x7f, 0x00, 0x90, 0x4e,
//   0x7f, 0x81, 0x70, 0x80, 0x4e, 0x7f, 0x00, 0x90, 0x4a, 0x7f, 0x81, 0x70,
//   0x80, 0x4a, 0x7f, 0x00, 0x90, 0x47, 0x7f, 0x81, 0x70, 0x80, 0x47, 0x7f,
//   0x00, 0x90, 0x4a, 0x7f, 0x81, 0x70, 0x80, 0x4a, 0x7f, 0x00, 0x90, 0x4e,
//   0x7f, 0x81, 0x70, 0x80, 0x4e, 0x7f, 0x00, 0x90, 0x4a, 0x7f, 0x81, 0x70,
//   0x80, 0x4a, 0x7f, 0x00, 0x90, 0x45, 0x7f, 0x81, 0x70, 0x80, 0x45, 0x7f,
//   0x00, 0x90, 0x4a, 0x7f, 0x81, 0x70, 0x80, 0x4a, 0x7f, 0x00, 0x90, 0x4e,
//   0x7f, 0x81, 0x70, 0x80, 0x4e, 0x7f, 0x00, 0x90
};