// Rickroll
const uint8_t Tune[] PROGMEM = {
  0x4d, 0x54, 0x68, 0x64, 0x00, 0x00, 0x00, 0x06, 0x00, 0x01, 0x00, 0x02,
  0x03, 0xc0, 0x4d, 0x54, 0x72, 0x6b, 0x00, 0x00, 0x00, 0x0e, 0x00, 0xc0,
  0x0a, 0x00, 0xff, 0x51, 0x03, 0x08, 0x52, 0xae, 0x00, 0xff, 0x2f, 0x00,
  0x4d, 0x54, 0x72, 0x6b, 0x00, 0x00, 0x03, 0x55, 0x00, 0xff, 0x03, 0x1b,
  0x68, 0x74, 0x74, 0x70, 0x73, 0x3a, 0x2f, 0x2f, 0x6d, 0x75, 0x73, 0x69,
  0x63, 0x62, 0x6f, 0x78, 0x6d, 0x61, 0x6e, 0x69, 0x61, 0x63, 0x73, 0x2e,
  0x63, 0x6f, 0x6d, 0x87, 0x40, 0x90, 0x43, 0x7f, 0x81, 0x70, 0x80, 0x43,
  0x7f, 0x00, 0x90, 0x45, 0x7f, 0x81, 0x70, 0x80, 0x45, 0x7f, 0x00, 0x90,
  0x48, 0x7f, 0x81, 0x70, 0x80, 0x48, 0x7f, 0x00, 0x90, 0x45, 0x7f, 0x81,
  0x70, 0x80, 0x45, 0x7f, 0x00, 0x90, 0x4c, 0x7f, 0x00, 0x90, 0x41, 0x7f,
  0x00, 0x90, 0x48, 0x7f, 0x81, 0x70, 0x80, 0x4c, 0x7f, 0x00, 0x80, 0x41,
  0x7f, 0x00, 0x80, 0x48, 0x7f, 0x83, 0x60, 0x90, 0x4c, 0x7f, 0x00, 0x90,
  0x41, 0x7f, 0x00, 0x90, 0x48, 0x7f, 0x81, 0x70, 0x80, 0x4c, 0x7f, 0x00,
  0x80, 0x41, 0x7f, 0x00, 0x80, 0x48, 0x7f, 0x83, 0x60, 0x90, 0x47, 0x7f,
  0x00, 0x90, 0x43, 0x7f, 0x00, 0x90, 0x4a, 0x7f, 0x81, 0x70, 0x80, 0x47,
  0x7f, 0x00, 0x80, 0x43, 0x7f, 0x00, 0x80, 0x4a, 0x7f, 0x89, 0x30, 0x90,
  0x43, 0x7f, 0x81, 0x70, 0x80, 0x43, 0x7f, 0x00, 0x90, 0x45, 0x7f, 0x81,
  0x70, 0x80, 0x45, 0x7f, 0x00, 0x90, 0x47, 0x7f, 0x81, 0x70, 0x80, 0x47,
  0x7f, 0x00, 0x90, 0x43, 0x7f, 0x81, 0x70, 0x80, 0x43, 0x7f, 0x00, 0x90,
  0x47, 0x7f, 0x00, 0x90, 0x40, 0x7f, 0x00, 0x90, 0x4a, 0x7f, 0x81, 0x70,
  0x80, 0x47, 0x7f, 0x00, 0x80, 0x40, 0x7f, 0x00, 0x80, 0x4a, 0x7f, 0x83,
  0x60, 0x90, 0x47, 0x7f, 0x00, 0x90, 0x40, 0x7f, 0x00, 0x90, 0x4a, 0x7f,
  0x81, 0x70, 0x80, 0x47, 0x7f, 0x00, 0x80, 0x40, 0x7f, 0x00, 0x80, 0x4a,
  0x7f, 0x83, 0x60, 0x90, 0x40, 0x7f, 0x00, 0x90, 0x45, 0x7f, 0x00, 0x90,
  0x48, 0x7f, 0x81, 0x70, 0x80, 0x40, 0x7f, 0x00, 0x80, 0x45, 0x7f, 0x00,
  0x80, 0x48, 0x7f, 0x83, 0x60, 0x90, 0x47, 0x7f, 0x81, 0x70, 0x80, 0x47,
  0x7f, 0x00, 0x90, 0x45, 0x7f, 0x81, 0x70, 0x80, 0x45, 0x7f, 0x81, 0x70,
  0x90, 0x45, 0x7f, 0x81, 0x70, 0x80, 0x45, 0x7f, 0x00, 0x90, 0x47, 0x7f,
  0x81, 0x70, 0x80, 0x47, 0x7f, 0x00, 0x90, 0x48, 0x7f, 0x81, 0x70, 0x80,
  0x48, 0x7f, 0x00, 0x90, 0x45, 0x7f, 0x81, 0x70, 0x80, 0x45, 0x7f, 0x00,
  0x90, 0x40, 0x7f, 0x00, 0x90, 0x48, 0x7f, 0x81, 0x70, 0x80, 0x40, 0x7f,
  0x00, 0x80, 0x48, 0x7f, 0x85, 0x50, 0x90, 0x4a, 0x7f, 0x81, 0x70, 0x80,
  0x4a, 0x7f, 0x81, 0x70, 0x90, 0x47, 0x7f, 0x00, 0x90, 0x3e, 0x7f, 0x00,
  0x90, 0x43, 0x7f, 0x81, 0x70, 0x80, 0x47, 0x7f, 0x00, 0x80, 0x3e, 0x7f,
  0x00, 0x80, 0x43, 0x7f, 0x85, 0x50, 0x90, 0x43, 0x7f, 0x81, 0x70, 0x80,
  0x43, 0x7f, 0x85, 0x50, 0x90, 0x43, 0x7f, 0x81, 0x70, 0x80, 0x43, 0x7f,
  0x81, 0x70, 0x90, 0x47, 0x7f, 0x00, 0x90, 0x40, 0x7f, 0x00, 0x90, 0x4a,
  0x7f, 0x81, 0x70, 0x80, 0x47, 0x7f, 0x00, 0x80, 0x40, 0x7f, 0x00, 0x80,
  0x4a, 0x7f, 0x85, 0x50, 0x90, 0x40, 0x7f, 0x00, 0x90, 0x43, 0x7f, 0x00,
  0x90, 0x48, 0x7f, 0x81, 0x70, 0x80, 0x40, 0x7f, 0x00, 0x80, 0x43, 0x7f,
  0x00, 0x80, 0x48, 0x7f, 0x85, 0x50, 0x90, 0x45, 0x7f, 0x81, 0x70, 0x80,
  0x45, 0x7f, 0x85, 0x50, 0x90, 0x43, 0x7f, 0x81, 0x70, 0x80, 0x43, 0x7f,
  0x00, 0x90, 0x45, 0x7f, 0x81, 0x70, 0x80, 0x45, 0x7f, 0x00, 0x90, 0x48,
  0x7f, 0x81, 0x70, 0x80, 0x48, 0x7f, 0x00, 0x90, 0x45, 0x7f, 0x81, 0x70,
  0x80, 0x45, 0x7f, 0x00, 0x90, 0x4c, 0x7f, 0x00, 0x90, 0x41, 0x7f, 0x81,
  0x70, 0x80, 0x4c, 0x7f, 0x00, 0x80, 0x41, 0x7f, 0x83, 0x60, 0x90, 0x4c,
  0x7f, 0x00, 0x90, 0x41, 0x7f, 0x00, 0x90, 0x45, 0x7f, 0x00, 0x90, 0x48,
  0x7f, 0x81, 0x70, 0x80, 0x4c, 0x7f, 0x00, 0x80, 0x41, 0x7f, 0x00, 0x80,
  0x45, 0x7f, 0x00, 0x80, 0x48, 0x7f, 0x83, 0x60, 0x90, 0x47, 0x7f, 0x00,
  0x90, 0x43, 0x7f, 0x00, 0x90, 0x4a, 0x7f, 0x81, 0x70, 0x80, 0x47, 0x7f,
  0x00, 0x80, 0x43, 0x7f, 0x00, 0x80, 0x4a, 0x7f, 0x89, 0x30, 0x90, 0x43,
  0x7f, 0x81, 0x70, 0x80, 0x43, 0x7f, 0x00, 0x90, 0x45, 0x7f, 0x81, 0x70,
  0x80, 0x45, 0x7f, 0x00, 0x90, 0x47, 0x7f, 0x81, 0x70, 0x80, 0x47, 0x7f,
  0x00, 0x90, 0x43, 0x7f, 0x81, 0x70, 0x80, 0x43, 0x7f, 0x00, 0x90, 0x4f,
  0x7f, 0x00, 0x90, 0x4a, 0x7f, 0x81, 0x70, 0x80, 0x4f, 0x7f, 0x00, 0x80,
  0x4a, 0x7f, 0x85, 0x50, 0x90, 0x47, 0x7f, 0x81, 0x70, 0x80, 0x47, 0x7f,
  0x81, 0x70, 0x90, 0x40, 0x7f, 0x00, 0x90, 0x45, 0x7f, 0x00, 0x90, 0x48,
  0x7f, 0x81, 0x70, 0x80, 0x40, 0x7f, 0x00, 0x80, 0x45, 0x7f, 0x00, 0x80,
  0x48, 0x7f, 0x83, 0x60, 0x90, 0x47, 0x7f, 0x81, 0x70, 0x80, 0x47, 0x7f,
  0x00, 0x90, 0x45, 0x7f, 0x81, 0x70, 0x80, 0x45, 0x7f, 0x81, 0x70, 0x90,
  0x45, 0x7f, 0x81, 0x70, 0x80, 0x45, 0x7f, 0x00, 0x90, 0x47, 0x7f, 0x81,
  0x70, 0x80, 0x47, 0x7f, 0x00, 0x90, 0x48, 0x7f, 0x81, 0x70, 0x80, 0x48,
  0x7f, 0x00, 0x90, 0x45, 0x7f, 0x81, 0x70, 0x80, 0x45, 0x7f, 0x00, 0x90,
  0x40, 0x7f, 0x00, 0x90, 0x48, 0x7f, 0x81, 0x70, 0x80, 0x40, 0x7f, 0x00,
  0x80, 0x48, 0x7f, 0x85, 0x50, 0x90, 0x4a, 0x7f, 0x81, 0x70, 0x80, 0x4a,
  0x7f, 0x81, 0x70, 0x90, 0x47, 0x7f, 0x00, 0x90, 0x3e, 0x7f, 0x00, 0x90,
  0x43, 0x7f, 0x81, 0x70, 0x80, 0x47, 0x7f, 0x00, 0x80, 0x3e, 0x7f, 0x00,
  0x80, 0x43, 0x7f, 0x83, 0x60, 0x90, 0x45, 0x7f, 0x81, 0x70, 0x80, 0x45,
  0x7f, 0x00, 0x90, 0x43, 0x7f, 0x81, 0x70, 0x80, 0x43, 0x7f, 0x85, 0x50,
  0x90, 0x43, 0x7f, 0x81, 0x70, 0x80, 0x43, 0x7f, 0x81, 0x70, 0x90, 0x47,
  0x7f, 0x00, 0x90, 0x40, 0x7f, 0x00, 0x90, 0x4a, 0x7f, 0x81, 0x70, 0x80,
  0x47, 0x7f, 0x00, 0x80, 0x40, 0x7f, 0x00, 0x80, 0x4a, 0x7f, 0x85, 0x50,
  0x90, 0x40, 0x7f, 0x00, 0x90, 0x43, 0x7f, 0x00, 0x90, 0x48, 0x7f, 0x81,
  0x70, 0x80, 0x40, 0x7f, 0x00, 0x80, 0x43, 0x7f, 0x00, 0x80, 0x48, 0x7f,
  0x8d, 0x10, 0xb0, 0x5b, 0x00, 0x00, 0xff, 0x2f, 0x00
};